<svg width="380" height="71" viewBox="0 0 380 71" fill="none" xmlns="http://www.w3.org/2000/svg">
<path d="M69.2825 19.1982V48.6989L21.4247 0.841125H50.9254L69.2825 19.1982Z" fill="#20D091"/>
<path d="M69.1649 49.8456L49.0142 69.9962C48.583 70.4274 47.9949 70.6724 47.3775 70.6724H0V23.5596C0 22.3345 0.490044 21.1584 1.35252 20.2861L20.8857 0.841125V49.8456H69.1551H69.1649Z" fill="#197BFF"/>
<path d="M74.6926 43.622C74.6926 27.7936 84.6993 17.6889 100.322 17.6889H102.772C118.395 17.6889 128.401 27.7936 128.401 43.622V49.4437H87.6591C88.9823 56.4906 93.4809 60.1659 100.42 60.1659H125.236L119.414 70.6822H100.322C84.6993 70.6822 74.6926 60.4697 74.6926 44.6413V43.622ZM115.641 40.1525C114.621 32.3902 110.025 28.2052 102.674 28.2052H100.43C93.079 28.2052 88.4824 32.3902 87.4631 40.1525H115.641Z" fill="white"/>
<path d="M138.408 60.1659H159.441C163.734 60.1659 165.87 58.4311 165.87 55.6771C165.87 53.1289 163.93 51.2863 159.95 50.4728L146.886 47.9246C137.291 45.984 132.39 39.7605 132.39 32.5078C132.39 25.2551 138.104 17.6987 150.052 17.6987H177.925L172.104 28.215H151.375C147.082 28.215 144.945 29.9498 144.945 32.6058C144.945 35.2618 146.984 36.9966 150.865 37.8101L163.93 40.3583C173.427 42.2989 178.425 48.6303 178.425 55.7751C178.425 62.9199 172.711 70.6823 160.656 70.6823H132.577L138.398 60.1659H138.408Z" fill="white"/>
<path d="M185.08 0.841125H197.635V11.2595H185.08V0.841125ZM197.635 17.6889V70.6823H185.08V17.6889H197.635Z" fill="white"/>
<path d="M254.304 33.4095V70.6724H241.749V34.6346C241.749 30.5476 239.298 28.2052 235.319 28.2052H219.599V70.6822H207.044V17.6889H237.368C247.982 17.6889 254.313 23.6086 254.313 33.4095H254.304Z" fill="white"/>
<path d="M314.961 43.622V44.6413C314.961 60.4697 304.955 70.6822 289.332 70.6822H286.882C271.259 70.6822 261.252 60.4697 261.252 44.6413V43.622C261.252 27.7936 271.259 17.6889 286.882 17.6889H289.332C304.955 17.6889 314.961 27.7936 314.961 43.622ZM286.99 60.1659H289.234C297.604 60.1659 302.406 54.7558 302.406 44.6413V43.622C302.406 33.6153 297.604 28.2052 289.234 28.2052H286.99C278.62 28.2052 273.817 33.6153 273.817 43.622V44.6413C273.817 54.746 278.62 60.1659 286.99 60.1659Z" fill="white"/>
<path d="M322.518 0.841125H335.073V11.2595H322.518V0.841125ZM335.073 17.6889V70.6823H322.518V17.6889H335.073Z" fill="white"/>
<path d="M374.286 28.2052H364.583C359.781 28.2052 357.027 30.8612 357.027 35.8597V70.6724H344.472V34.8404C344.472 25.0395 351.617 17.6889 362.241 17.6889H380.01L374.296 28.2052H374.286Z" fill="white"/>
</svg>
